<?xml version="1.0" standalone="no"?>
<!DOCTYPE svg PUBLIC "-//W3C//DTD SVG 20010904//EN"
 "http://www.w3.org/TR/2001/REC-SVG-20010904/DTD/svg10.dtd">
<svg version="1.0" xmlns="http://www.w3.org/2000/svg"
 width="304.000000pt" height="304.000000pt" viewBox="0 0 304.000000 304.000000"
 preserveAspectRatio="xMidYMid meet">
<metadata>
Created by potrace 1.11, written by Peter Selinger 2001-2013
</metadata>
<g transform="translate(0.000000,304.000000) scale(0.100000,-0.100000)"
fill="#000000" stroke="none">
<path d="M5 2650 c4 -7 518 -10 1511 -10 l1504 0 0 -1125 0 -1125 -1504 0
c-993 0 -1507 -3 -1511 -10 -4 -7 503 -10 1514 -10 l1521 0 0 1145 0 1145
-1521 0 c-1011 0 -1518 -3 -1514 -10z"/>
<path d="M220 2468 c13 -13 1155 -832 1188 -852 13 -8 117 68 117 85 0 6 -277
172 -615 370 -731 428 -709 415 -690 397z"/>
<path d="M685 2369 c133 -44 208 -68 495 -159 107 -34 202 -64 210 -67 8 -3
20 -7 25 -8 36 -9 251 -79 255 -84 3 -3 12 -6 20 -7 27 -2 195 -58 198 -66 2
-5 7 -6 12 -3 4 3 32 -4 62 -14 35 -12 60 -16 70 -10 24 13 187 51 196 45 4
-3 14 -1 22 4 12 8 12 10 0 14 -22 7 -261 66 -286 70 -28 4 -245 56 -264 63
-8 3 -22 7 -30 8 -24 3 -204 45 -220 52 -8 3 -24 7 -35 8 -27 4 -246 55 -265
62 -8 3 -24 7 -35 9 -31 4 -278 64 -295 71 -8 3 -30 8 -49 10 -19 2 -42 8 -52
14 -11 5 -19 8 -19 5 0 -2 -24 2 -52 10 -103 27 -81 12 37 -27z"/>
<path d="M242 2273 c8 -10 250 -312 537 -670 286 -359 524 -653 527 -653 3 0
-3 15 -14 33 -104 174 -119 215 -103 287 l10 45 -112 115 c-181 187 -851 860
-856 860 -2 0 3 -8 11 -17z"/>
<path d="M825 2213 c168 -90 820 -433 824 -433 12 0 162 82 158 86 -7 7 -991
364 -1002 364 -5 -1 4 -8 20 -17z"/>
<path d="M2180 1954 c-156 -35 -365 -121 -515 -214 -174 -106 -343 -266 -405
-381 -29 -54 -34 -74 -35 -129 l0 -65 129 -220 c71 -121 139 -234 152 -251 55
-74 183 -104 340 -80 287 43 606 206 820 420 125 125 169 204 168 301 0 55 -9
78 -113 295 -63 129 -122 247 -133 263 -38 54 -90 71 -223 74 -77 1 -143 -3
-185 -13z"/>
<path d="M750 1927 c16 -20 495 -497 501 -497 8 0 89 97 89 107 0 4 -121 87
-268 184 -278 184 -330 217 -322 206z"/>
</g>
</svg>
